<svg class="icon" style="width: 1em;height: 1em;vertical-align: middle;fill: currentColor;overflow: hidden;" viewBox="0 0 1024 1024" version="1.1" xmlns="http://www.w3.org/2000/svg" p-id="3770"><path d="M896.4 573.56h-64.66V450.42h64.66c24.9 0 45.09-20.19 45.09-45.09 0-24.9-20.19-45.09-45.09-45.09h-64.66v-54.18c0-62.75-51.06-113.78-113.8-113.78h-54.18v-64.69c0-24.9-20.19-45.09-45.09-45.09s-45.09 20.19-45.09 45.09v64.69H450.43v-64.69c0-24.9-20.19-45.09-45.09-45.09s-45.09 20.19-45.09 45.09v64.69h-54.18c-62.75 0-113.78 51.03-113.78 113.78v54.18H127.6c-24.9 0-45.09 20.19-45.09 45.09 0 24.9 20.19 45.09 45.09 45.09h64.69v123.14H127.6c-24.9 0-45.09 20.19-45.09 45.09 0 24.9 20.19 45.09 45.09 45.09h64.69v54.18c0 62.75 51.03 113.8 113.78 113.8h54.18v64.69c0 24.9 20.19 45.09 45.09 45.09s45.09-20.19 45.09-45.09v-64.69h123.14v64.69c0 24.9 20.19 45.09 45.09 45.09s45.09-20.19 45.09-45.09v-64.69h54.18c62.75 0 113.8-51.06 113.8-113.8v-54.18h64.66c24.9 0 45.09-20.19 45.09-45.09 0.01-24.9-20.18-45.09-45.08-45.09zM741.56 717.92c0 13.03-10.59 23.62-23.62 23.62H306.07c-13.01 0-23.6-10.59-23.6-23.62V306.06c0-13.01 10.59-23.6 23.6-23.6h411.87c13.03 0 23.62 10.59 23.62 23.6v411.86z" fill="#333333" p-id="3771"></path></svg>
